<svg width="15" height="12" viewBox="0 0 15 12" fill="none" xmlns="http://www.w3.org/2000/svg">
<path d="M14.4231 0.5H0.576923C0.423914 0.5 0.277171 0.557946 0.168977 0.661091C0.0607828 0.764236 0 0.904131 0 1.05V10.4C0 10.6917 0.121566 10.9715 0.337954 11.1778C0.554342 11.3841 0.847827 11.5 1.15385 11.5H13.8462C14.1522 11.5 14.4457 11.3841 14.662 11.1778C14.8784 10.9715 15 10.6917 15 10.4V1.05C15 0.904131 14.9392 0.764236 14.831 0.661091C14.7228 0.557946 14.5761 0.5 14.4231 0.5ZM7.5 6.35406L2.06034 1.6H12.9397L7.5 6.35406ZM5.38774 6L1.15385 9.69944V2.30056L5.38774 6ZM6.24159 6.74594L7.10697 7.50562C7.21341 7.59877 7.35263 7.65046 7.49712 7.65046C7.6416 7.65046 7.78082 7.59877 7.88726 7.50562L8.75264 6.74594L12.9353 10.4H2.06034L6.24159 6.74594ZM9.61226 6L13.8462 2.29988V9.70013L9.61226 6Z" fill="#4B4B4B"/>
</svg>
