<svg width="21" height="21" viewBox="0 0 21 21" fill="none" xmlns="http://www.w3.org/2000/svg">
<g clip-path="url(#clip0_1254_69)">
<g clip-path="url(#clip1_1254_69)">
<path d="M5.94993 0C5.37453 0 4.89993 0.4746 4.89993 1.05V5.25C4.89993 5.7155 5.59993 5.719 5.59993 5.25V1.05C5.59993 0.8498 5.74973 0.7 5.94993 0.7H19.9499C20.1501 0.7 20.2999 0.8498 20.2999 1.05V19.95C20.2999 20.1502 20.1501 20.3 19.9499 20.3H5.94993C5.74973 20.3 5.59993 20.1502 5.59993 19.95V15.05C5.59993 14.588 4.89993 14.5922 4.89993 15.05V19.95C4.89993 20.5254 5.37453 21 5.94993 21H19.9499C20.5253 21 20.9999 20.5254 20.9999 19.95V1.05C20.9999 0.4746 20.5253 0 19.9499 0H5.94993ZM3.14993 13.3C3.46493 13.3 3.60003 12.9059 3.39773 12.7022L0.844831 10.15L3.39773 7.5978C3.70713 7.2996 3.21993 6.7858 2.90213 7.1022L0.102131 9.9022C-0.0343691 10.0394 -0.0343691 10.2606 0.102131 10.3978L2.90213 13.1978C2.96863 13.2657 3.05613 13.3 3.14993 13.3ZM12.2499 10.5H2.44993C2.25603 10.5 2.09993 10.3439 2.09993 10.15C2.09993 9.9561 2.25603 9.8 2.44993 9.8H12.2499C12.4438 9.8 12.5999 9.9561 12.5999 10.15C12.5999 10.3439 12.4438 10.5 12.2499 10.5Z" fill="black"/>
</g>
</g>
<defs>
<clipPath id="clip0_1254_69">
<rect width="21" height="21" fill="white"/>
</clipPath>
<clipPath id="clip1_1254_69">
<rect width="21" height="21" fill="white"/>
</clipPath>
</defs>
</svg>
